<svg width="29" height="19" viewBox="0 0 29 19" fill="none" xmlns="http://www.w3.org/2000/svg">
<path opacity="0.55" d="M24.9976 0.000325345H8.6982C7.98589 -0.00774304 7.28377 0.134389 6.66431 0.412047C6.04485 0.689704 5.53051 1.09282 5.17439 1.57979L0.53398 7.92054C0.184114 8.40113 0 8.94572 0 9.5C0 10.0543 0.184114 10.5989 0.53398 11.0795L5.17439 17.4202C5.53051 17.9072 6.04485 18.3103 6.66431 18.588C7.28377 18.8656 7.98589 19.0077 8.6982 18.9997H24.9976C26.058 18.9967 27.0738 18.6629 27.8235 18.0711C28.5733 17.4794 28.9962 16.6776 29 15.8407V3.15925C28.9962 2.32238 28.5733 1.52065 27.8235 0.928886C27.0738 0.337124 26.058 0.00334113 24.9976 0.000325345ZM26.3608 15.8407C26.3608 15.982 26.3255 16.1219 26.257 16.2525C26.1885 16.383 26.0881 16.5016 25.9615 16.6015C25.8349 16.7014 25.6847 16.7807 25.5193 16.8347C25.3539 16.8888 25.1767 16.9166 24.9976 16.9166H8.6982C8.44629 16.925 8.19635 16.8781 7.97619 16.7812C7.75602 16.6842 7.57425 16.5409 7.45109 16.3672L2.81068 10.0265C2.69896 9.86089 2.64053 9.67616 2.64053 9.48855C2.64053 9.30095 2.69896 9.11622 2.81068 8.95062L7.45109 2.63277C7.57425 2.45912 7.75602 2.31583 7.97619 2.21885C8.19635 2.12186 8.44629 2.07497 8.6982 2.08339H24.9976C25.1767 2.08339 25.3539 2.11121 25.5193 2.16528C25.6847 2.21935 25.8349 2.2986 25.9615 2.3985C26.0881 2.4984 26.1885 2.61701 26.257 2.74754C26.3255 2.87807 26.3608 3.01797 26.3608 3.15925V15.8407ZM23.1995 6.06638L18.7041 9.5L23.0545 12.9908C23.1777 13.0876 23.2754 13.2027 23.3422 13.3293C23.4089 13.456 23.4432 13.5919 23.4432 13.7291C23.4432 13.8663 23.4089 14.0021 23.3422 14.1288C23.2754 14.2555 23.1777 14.3705 23.0545 14.4673C22.8032 14.6582 22.4679 14.7649 22.1191 14.7649C21.7703 14.7649 21.4351 14.6582 21.1838 14.4673L16.7609 10.9765L12.4105 14.4673C12.1617 14.6575 11.8289 14.7638 11.4824 14.7638C11.136 14.7638 10.8032 14.6575 10.5544 14.4673C10.4312 14.3705 10.3334 14.2555 10.2667 14.1288C10.2 14.0021 10.1656 13.8663 10.1656 13.7291C10.1656 13.5919 10.2 13.456 10.2667 13.3293C10.3334 13.2027 10.4312 13.0876 10.5544 12.9908L14.9773 9.5L10.5544 6.06638C10.3281 5.86871 10.2065 5.61013 10.2144 5.34383C10.2223 5.07753 10.3592 4.82375 10.5969 4.63466C10.8346 4.44557 11.1551 4.33556 11.4924 4.32724C11.8298 4.31892 12.1583 4.41292 12.4105 4.58993L16.7609 8.08077L21.1838 4.58993C21.4333 4.39631 21.7692 4.2878 22.1191 4.2878C22.469 4.2878 22.805 4.39631 23.0545 4.58993C23.1876 4.67893 23.2971 4.78789 23.3766 4.91051C23.456 5.03312 23.5039 5.16696 23.5174 5.30427C23.5309 5.44158 23.5097 5.57964 23.4551 5.71046C23.4006 5.84127 23.3137 5.96225 23.1995 6.06638Z" fill="black"/>
</svg>
